PathFileType	4	(X/Y/Z)	c:/Users/goper/Files/vsCode/490R/osim_files/C07/C07_Slow_05.trc
DataRate	CameraRate	NumFrames	NumMarkers	Units                	OrigDataRate	OrigDataStartFrame	OrigNumFrames
250.00	250.00	7	36	mm	250.0	1538	3074
                Frame#	Time	LPSIS			LASIS			LTH1			LTH2			LTH3			LTH4			LLFE			LMFE			LSH1			LSH2			LSH3			LSH4			LLMAL			LMMAL			LCAL			LMTP5			LTOE			LMTP1			RPSIS			RASIS			RTH1			RTH2			RTH3			RTH4			RLFE			RMFE			RSH1			RSH2			RSH3			RSH4			RLMAL			RMMAL			RCAL			RMTP1			RTOE			RMTP5		
		X1	Y1	Z1	X2	Y2	Z2	X3	Y3	Z3	X4	Y4	Z4	X5	Y5	Z5	X6	Y6	Z6	X7	Y7	Z7	X8	Y8	Z8	X9	Y9	Z9	X10	Y10	Z10	X11	Y11	Z11	X12	Y12	Z12	X13	Y13	Z13	X14	Y14	Z14	X15	Y15	Z15	X16	Y16	Z16	X17	Y17	Z17	X18	Y18	Z18	X19	Y19	Z19	X20	Y20	Z20	X21	Y21	Z21	X22	Y22	Z22	X23	Y23	Z23	X24	Y24	Z24	X25	Y25	Z25	X26	Y26	Z26	X27	Y27	Z27	X28	Y28	Z28	X29	Y29	Z29	X30	Y30	Z30	X31	Y31	Z31	X32	Y32	Z32	X33	Y33	Z33	X34	Y34	Z34	X35	Y35	Z35	X36	Y36	Z36

1538	6.14800	-1094.34216	997.57214	334.06293	-1258.18652	981.56171	421.28415	-1227.95898	777.73932	470.72031	-1258.13965	704.83862	475.90671	-1288.31763	635.39917	470.94131	-1333.06519	736.30621	463.19943	-1300.07678	519.52972	454.67001	-1315.88757	502.82449	337.68903	-1173.14392	410.35577	466.60382	-1127.64233	391.93973	448.79684	-1205.43433	384.94724	458.92200	-1170.93848	355.15024	451.85248	-1002.77789	271.81891	413.51154	-1041.76367	255.57242	344.67731	-929.35193	282.90018	355.47479	-1001.19690	125.53355	451.73196	-1042.78308	79.36505	403.12531	-1020.93732	93.75891	348.20370	-1104.47144	1011.90887	235.36554	-1271.07288	989.05939	167.26761	-1243.40369	833.67847	111.20477	-1252.54077	755.46887	112.79325	-1259.19067	673.56500	121.10180	-1321.73950	763.12799	149.25369	-1251.13513	496.38773	158.51959	-1237.76697	506.15802	269.08295	-1189.59363	314.04602	147.03633	-1218.81091	265.21585	149.00607	-1250.42322	315.63028	154.19051	-1246.73877	272.68564	157.03595	-1186.36316	94.95241	198.95703	-1212.62708	104.67973	277.72635	-1135.64050	45.75589	250.70636	-1348.25464	39.09681	262.84076	-1368.26477	52.55553	211.67561	-1315.99060	39.66121	156.26773
1539	6.15200	-1097.75317	997.95740	333.78360	-1261.60071	981.88062	420.90344	-1232.94202	778.27863	470.44324	-1263.68726	705.63708	475.56372	-1294.62793	636.48700	470.41235	-1338.38599	737.47784	462.67798	-1307.00232	520.65875	453.77136	-1322.66321	504.37784	337.17947	-1180.68835	411.23782	465.62070	-1135.74268	392.00409	448.16568	-1213.08130	385.94876	458.09836	-1178.96643	355.93964	451.07181	-1011.26569	270.93967	412.61600	-1050.42151	255.36128	343.94806	-937.04205	280.40613	354.94919	-1010.33063	124.67309	449.71991	-1055.87048	79.95009	403.04242	-1032.90430	93.36006	347.87567	-1107.92188	1012.10980	234.99083	-1274.43152	988.87775	166.91957	-1246.51404	833.51251	111.10013	-1255.40076	755.29535	112.76608	-1261.35962	673.70850	120.70251	-1324.66187	762.79474	149.19635	-1253.41235	496.30463	158.69049	-1240.13123	506.26181	269.15549	-1191.23938	314.10913	147.06992	-1219.97668	265.33875	148.94724	-1252.03076	315.48660	154.41725	-1248.08997	272.59061	157.24190	-1186.57117	95.07294	198.97702	-1212.72620	104.70095	277.76239	-1135.71313	45.76042	250.71396	-1348.24536	39.06799	262.87863	-1368.25903	52.52475	211.67868	-1315.96716	39.65698	156.26332
1540	6.15600	-1101.23584	998.23309	333.57822	-1265.16931	982.47253	420.38608	-1238.02173	778.89886	470.06900	-1269.32727	706.27771	474.94724	-1300.46094	637.41907	469.94638	-1343.58740	738.79639	462.19269	-1313.89038	521.83044	452.89438	-1329.21863	505.93164	336.52536	-1188.21252	411.96255	464.61148	-1143.84778	391.95251	447.54666	-1220.73523	386.87015	457.21646	-1186.83618	356.45782	450.50638	-1019.71008	269.85626	411.73544	-1059.14221	254.95949	343.26727	-944.95233	277.59830	354.46637	-1022.24298	123.97567	449.43539	-1068.48071	80.18483	402.57889	-1045.13232	92.89157	347.50171	-1111.42773	1012.31677	234.61421	-1277.96179	988.86304	166.47304	-1249.47595	833.36865	110.91988	-1258.23499	755.10571	112.71229	-1264.09143	673.54468	120.65060	-1327.58557	762.48737	149.05647	-1255.59619	496.16217	158.81235	-1242.39478	506.25058	269.22205	-1192.83521	314.28647	147.11195	-1221.32568	265.33289	149.03484	-1253.51648	315.39056	154.62210	-1249.33691	272.44086	157.43481	-1186.82007	95.22022	198.94232	-1212.87549	104.70517	277.82657	-1135.75183	45.77040	250.69528	-1348.28467	39.05655	262.88052	-1368.27246	52.49313	211.65762	-1315.98828	39.63615	156.27298
1541	6.16000	-1104.66553	998.66425	333.22455	-1268.61560	982.81439	419.91779	-1243.09619	779.54645	469.69217	-1274.93555	707.15204	474.51202	-1306.71436	638.47705	469.41983	-1348.84961	740.12543	461.64420	-1320.73193	523.03455	452.03830	-1335.84375	507.48624	335.98392	-1195.92322	412.31567	463.20810	-1151.95679	391.78134	446.94113	-1228.63599	387.81491	456.30927	-1194.90283	357.03229	449.78482	-1028.30432	268.70316	411.02554	-1067.74036	254.37341	342.46823	-952.94525	274.75601	353.85452	-1034.05261	123.11485	449.06689	-1080.91821	80.18238	402.16635	-1057.24536	92.34593	347.10751	-1114.81372	1012.53992	234.25192	-1281.29919	988.79108	166.04111	-1252.54651	833.19470	110.76626	-1261.54785	754.91357	112.77522	-1266.78174	673.39508	120.62314	-1330.48779	762.23669	148.92729	-1257.76880	495.98303	158.97429	-1244.64612	506.29749	269.26569	-1194.25708	314.45349	147.10384	-1222.62976	265.32465	149.26897	-1255.11011	315.30478	154.88382	-1250.55640	272.34784	157.60115	-1187.03784	95.37266	198.97153	-1212.99609	104.78843	277.88406	-1135.78296	45.84701	250.69774	-1348.30872	39.08559	262.91998	-1368.37732	52.53547	211.66667	-1316.01929	39.65016	156.31400
1542	6.16400	-1108.10474	999.06305	332.96927	-1272.13062	983.34570	419.53503	-1248.14209	780.20502	469.34601	-1280.57617	708.11273	474.11530	-1312.73499	639.63239	468.87735	-1354.08044	741.45667	461.03128	-1327.51855	524.26044	451.20236	-1342.28040	509.14590	335.61963	-1203.28308	412.65076	462.40106	-1160.06860	391.48691	446.35059	-1236.56628	388.43497	455.39639	-1203.06128	357.35953	449.07919	-1037.08826	267.05316	410.12869	-1076.98035	253.37427	342.02344	-961.18347	271.65594	353.22394	-1045.99670	122.07858	448.67612	-1093.73474	80.18910	401.74951	-1069.43799	91.54039	346.68494	-1118.41187	1012.69904	233.93465	-1284.84998	988.66504	165.68999	-1255.61035	833.02826	110.68597	-1264.73608	754.64569	112.85478	-1270.21008	672.66998	121.17408	-1333.33862	761.89172	148.87549	-1259.92407	495.87979	159.18517	-1247.04858	506.39200	269.35889	-1195.83826	314.58789	147.20657	-1223.82947	265.37561	149.28586	-1256.50977	315.13351	155.15331	-1251.85742	272.25024	157.81931	-1187.35962	95.45929	199.11812	-1213.15454	104.86839	277.93933	-1135.83984	45.91182	250.67448	-1348.37720	39.10524	262.93359	-1368.44360	52.24961	211.33760	-1316.03662	39.64598	156.33482
1543	6.16800	-1111.64355	999.38525	332.85812	-1275.69666	983.90204	419.11905	-1253.18298	780.87268	469.02921	-1285.97510	709.00061	473.76312	-1318.63879	640.79504	468.41254	-1359.23999	742.77820	460.37482	-1334.24133	525.49762	450.38586	-1347.99719	510.49585	335.49655	-1210.83777	412.89743	461.59476	-1168.18286	391.06546	445.77625	-1244.20178	389.06668	454.56671	-1211.20056	357.64975	448.37848	-1045.97412	265.43942	409.38461	-1086.10632	252.37448	341.38434	-969.60590	268.47012	352.75806	-1057.99524	120.95998	448.25900	-1106.68774	80.05489	401.35739	-1081.79395	90.83778	346.10098	-1121.92810	1012.87598	233.62375	-1288.24268	988.47351	165.26059	-1258.59644	832.88446	110.49012	-1267.61243	754.39386	112.76445	-1271.98254	672.93390	120.71072	-1336.17749	761.62012	148.72272	-1262.13062	495.72055	159.32788	-1249.35535	506.35098	269.42084	-1197.25378	314.75305	147.30002	-1225.08386	265.38712	149.51213	-1258.00146	315.04645	155.35764	-1252.95215	272.21719	158.02576	-1187.65979	95.57470	199.22365	-1213.33203	104.95034	278.05804	-1135.93298	45.99728	250.72354	-1348.49097	39.17329	262.92505	-1368.50647	52.33583	211.36230	-1316.07104	39.68246	156.36278
1544	6.17200	-1115.02917	999.70862	332.56421	-1279.25745	984.46661	418.60406	-1258.17041	781.52625	468.74576	-1291.44800	709.83081	473.35886	-1324.73376	641.90118	467.85016	-1364.41626	744.16113	459.77371	-1340.89160	526.73566	449.58795	-1353.62134	511.76736	335.32108	-1219.49768	414.00000	461.00925	-1176.29822	390.51331	445.21957	-1252.19080	389.55307	453.55667	-1219.43591	357.69162	447.65543	-1054.95166	263.65271	408.82135	-1095.19873	251.21344	340.75699	-978.19543	265.09064	352.35461	-1069.94836	119.65028	447.80927	-1119.72339	80.00209	400.86191	-1094.41943	89.87773	345.76453	-1125.35852	1013.05072	233.31276	-1291.73157	988.39368	164.81300	-1261.51306	832.73627	110.33675	-1270.40198	754.20355	112.69935	-1274.54211	672.83362	120.70091	-1339.16089	761.30811	148.54214	-1264.26855	495.60001	159.54700	-1251.59509	506.39276	269.56339	-1198.57104	314.97092	147.45627	-1226.12219	265.52103	149.59253	-1259.27454	314.89334	155.63873	-1254.13159	272.11847	158.31068	-1187.91541	95.68646	199.34506	-1213.51855	104.99661	278.14828	-1136.00391	46.12989	250.74893	-1348.52734	39.16333	262.94846	-1368.59961	52.69456	211.67813	-1316.07703	39.68169	156.42128
